<?xml version="1.0" encoding="UTF-8" standalone="no"?>
<!DOCTYPE svg PUBLIC "-//W3C//DTD SVG 1.0//EN" "http://www.w3.org/TR/2001/REC-SVG-20010904/DTD/svg10.dtd">
<!-- Generated by Microsoft Visio 11.0, SVG Export, v1.0 rdmo-neu-en.svg Page-1 -->
<svg xmlns="http://www.w3.org/2000/svg" xmlns:xlink="http://www.w3.org/1999/xlink" xmlns:ev="http://www.w3.org/2001/xml-events"
		xmlns:v="http://schemas.microsoft.com/visio/2003/SVGExtensions/" width="8.02198in" height="6.64403in"
		viewBox="0 0 577.583 478.37" xml:space="preserve" color-interpolation-filters="sRGB" class="st6">
	<v:documentProperties v:langID="1033" v:metric="true" v:viewMarkup="false">
		<v:userDefs>
			<v:ud v:nameU="msvNoAutoConnect" v:val="VT0(0):26"/>
		</v:userDefs>
	</v:documentProperties>

	<style type="text/css">
	<![CDATA[
		.st1 {fill:#ffffff;stroke:#101f70;stroke-linecap:round;stroke-linejoin:round;stroke-width:1.5}
		.st2 {fill:#101f70;font-family:Droid Serif;font-size:1.33333em}
		.st3 {fill:#101f70;font-family:Droid Sans;font-size:1.00001em}
		.st4 {font-size:1em}
		.st5 {fill:none;stroke:#101f70;stroke-linecap:round;stroke-linejoin:round;stroke-width:1.5}
		.st6 {fill:none;fill-rule:evenodd;font-size:12px;overflow:visible;stroke-linecap:square;stroke-miterlimit:3}
	]]>
	</style>

	<g v:mID="0" v:index="1" v:groupContext="foregroundPage">
		<title>Page-1</title>
		<v:pageProperties v:drawingScale="0.0393701" v:pageScale="0.0393701" v:drawingUnits="24" v:shadowOffsetX="8.50394"
				v:shadowOffsetY="-8.50394"/>
		<v:layer v:name="Connector" v:index="0"/>
		<g id="shape1-1" v:mID="1" v:groupContext="shape" transform="translate(203.752,-274.618)">
			<title>Sheet.1</title>
			<desc>Domain</desc>
			<v:textBlock v:margins="rect(4,4,4,4)" v:tabSpace="42.5197"/>
			<v:textRect cx="70.8661" cy="464.197" width="141.74" height="28.3465"/>
			<rect x="0" y="450.024" width="141.732" height="28.3465" class="st1"/>
			<text x="40.65" y="469" class="st2" v:langID="1033"><v:paragraph v:horizAlign="1"/><v:tabList/>Domain</text>		</g>
		<g id="shape2-4" v:mID="2" v:groupContext="shape" transform="translate(203.752,-76.1929)">
			<title>Sheet.2</title>
			<desc>Options</desc>
			<v:textBlock v:margins="rect(4,4,4,4)" v:tabSpace="42.5197"/>
			<v:textRect cx="70.8661" cy="464.197" width="141.74" height="28.3465"/>
			<rect x="0" y="450.024" width="141.732" height="28.3465" class="st1"/>
			<text x="41.26" y="469" class="st2" v:langID="1033"><v:paragraph v:horizAlign="1"/><v:tabList/>Options</text>		</g>
		<g id="shape3-7" v:mID="3" v:groupContext="shape" transform="translate(203.752,-161.232)">
			<title>Sheet.3</title>
			<desc>Conditions</desc>
			<v:textBlock v:margins="rect(4,4,4,4)" v:tabSpace="42.5197"/>
			<v:textRect cx="70.8661" cy="464.197" width="141.74" height="28.3465"/>
			<rect x="0" y="450.024" width="141.732" height="28.3465" class="st1"/>
			<text x="29.95" y="469" class="st2" v:langID="1033"><v:paragraph v:horizAlign="1"/><v:tabList/>Conditions</text>		</g>
		<g id="shape4-10" v:mID="4" v:groupContext="shape" transform="translate(19.5,-274.618)">
			<title>Sheet.4</title>
			<desc>Questions</desc>
			<v:textBlock v:margins="rect(4,4,4,4)" v:tabSpace="42.5197"/>
			<v:textRect cx="56.6929" cy="464.197" width="113.39" height="28.3465"/>
			<rect x="0" y="450.024" width="113.386" height="28.3465" class="st1"/>
			<text x="19.03" y="469" class="st2" v:langID="1033"><v:paragraph v:horizAlign="1"/><v:tabList/>Questions</text>		</g>
		<g id="shape5-13" v:mID="5" v:groupContext="shape" transform="translate(416.35,-274.618)">
			<title>Sheet.5</title>
			<desc>Views</desc>
			<v:textBlock v:margins="rect(4,4,4,4)" v:tabSpace="42.5197"/>
			<v:textRect cx="70.8661" cy="435.85" width="141.74" height="85.0394"/>
			<rect x="0" y="393.331" width="141.732" height="85.0394" class="st1"/>
			<text x="48.12" y="440.65" class="st2" v:langID="1033"><v:paragraph v:horizAlign="1"/><v:tabList/>Views</text>		</g>
		<g id="shape6-16" v:mID="6" v:groupContext="shape" transform="translate(416.35,-161.232)">
			<title>Sheet.6</title>
			<desc>Tasks</desc>
			<v:textBlock v:margins="rect(4,4,4,4)" v:tabSpace="42.5197"/>
			<v:textRect cx="70.8661" cy="435.85" width="141.74" height="85.0394"/>
			<rect x="0" y="393.331" width="141.732" height="85.0394" class="st1"/>
			<text x="49.56" y="440.65" class="st2" v:langID="1033"><v:paragraph v:horizAlign="1"/><v:tabList/>Tasks</text>		</g>
		<g id="shape7-19" v:mID="7" v:groupContext="shape" transform="translate(203.752,-430.524)">
			<title>Sheet.7</title>
			<desc>Projects</desc>
			<v:textBlock v:margins="rect(4,4,4,4)" v:tabSpace="42.5197"/>
			<v:textRect cx="70.8661" cy="464.197" width="141.74" height="28.3465"/>
			<rect x="0" y="450.024" width="141.732" height="28.3465" class="st1"/>
			<text x="40.6" y="469" class="st2" v:langID="1033"><v:paragraph v:horizAlign="1"/><v:tabList/>Projects</text>		</g>
		<g id="shape8-22" v:mID="8" v:groupContext="shape" transform="translate(203.752,-19.5)">
			<title>Sheet.8</title>
			<desc>Option sets Options</desc>
			<v:textBlock v:margins="rect(4,4,4,4)" v:tabSpace="42.5197"/>
			<v:textRect cx="70.8661" cy="450.024" width="141.74" height="56.6929"/>
			<rect x="0" y="421.677" width="141.732" height="56.6929" class="st1"/>
			<text x="40.1" y="445.22" class="st3" v:langID="1033"><v:paragraph v:spLine="-1.6" v:horizAlign="1"/><v:tabList/>Option sets<v:newlineChar/><tspan
						x="49.61" dy="1.6em" class="st4">Options</tspan></text>		</g>
		<g id="shape9-26" v:mID="9" v:groupContext="shape" transform="translate(203.752,-217.925)">
			<title>Sheet.9</title>
			<desc>Attributes</desc>
			<v:textBlock v:margins="rect(4,4,4,4)" v:tabSpace="42.5197"/>
			<v:textRect cx="70.8661" cy="450.024" width="141.74" height="56.6929"/>
			<rect x="0" y="421.677" width="141.732" height="56.6929" class="st1"/>
			<text x="44.21" y="454.82" class="st3" v:langID="1033"><v:paragraph v:spLine="-1.6" v:horizAlign="1"/><v:tabList/>Attributes</text>		</g>
		<g id="shape10-29" v:mID="10" v:groupContext="shape" transform="translate(19.5,-76.1929)">
			<title>Sheet.10</title>
			<desc>Catalogs Sections Subsection Question sets Questions</desc>
			<v:textBlock v:margins="rect(4,4,4,4)" v:tabSpace="42.5197"/>
			<v:textRect cx="56.6929" cy="379.157" width="113.39" height="198.425"/>
			<rect x="0" y="279.945" width="113.386" height="198.425" class="st1"/>
			<text x="33.84" y="345.56" class="st3" v:langID="1033"><v:paragraph v:spLine="-1.6" v:horizAlign="1"/><v:tabList/>Catalogs<v:newlineChar/><tspan
						x="34.3" dy="1.6em" class="st4">Sections<v:newlineChar/></tspan><tspan x="27.25" dy="1.6em" class="st4">Subsection<v:newlineChar/></tspan><tspan
						x="20" dy="1.6em" class="st4">Question sets<v:newlineChar/></tspan><tspan x="29.51" dy="1.6em" class="st4">Questions</tspan></text>		</g>
		<g id="shape11-36" v:mID="11" v:groupContext="shape" transform="translate(203.752,-373.831)">
			<title>Sheet.11</title>
			<desc>Snapshots Values</desc>
			<v:textBlock v:margins="rect(4,4,4,4)" v:tabSpace="42.5197"/>
			<v:textRect cx="70.8661" cy="450.024" width="141.74" height="56.6929"/>
			<rect x="0" y="421.677" width="141.732" height="56.6929" class="st1"/>
			<text x="43.07" y="445.22" class="st3" v:langID="1033"><v:paragraph v:spLine="-1.6" v:horizAlign="1"/><v:tabList/>Snapshots<v:newlineChar/><tspan
						x="53.27" dy="1.6em" class="st4">Values</tspan></text>		</g>
		<g id="shape15-40" v:mID="15" v:groupContext="shape" transform="translate(744.484,331.311) rotate(90)">
			<title>45 degree double</title>
			<v:userDefs>
				<v:ud v:nameU="visVersion" v:val="VT0(14):26"/>
			</v:userDefs>
			<path d="M0 469.87 L8.5 461.36 L8.5 466.97 L19.84 466.97 L19.84 461.36 L28.35 469.87 L19.84 478.37 L19.84 472.76 L8.5
						 472.76 L8.5 478.37 L0 469.87 Z" class="st5"/>
		</g>
		<g id="shape18-42" v:mID="18" v:groupContext="shape" transform="translate(359.657,713.303) scale(1,-1)">
			<title>45 degree single.18</title>
			<v:userDefs>
				<v:ud v:nameU="visVersion" v:val="VT0(14):26"/>
			</v:userDefs>
			<path d="M0 467.03 L11.34 455.69 L11.34 463.18 L42.52 463.18 L42.52 470.89 L11.34 470.89 L11.34 478.37 L0 467.03 Z"
					class="st5"/>
		</g>
		<g id="shape16-44" v:mID="16" v:groupContext="shape" transform="translate(359.657,656.61) scale(1,-1)">
			<title>45 degree single.16</title>
			<v:userDefs>
				<v:ud v:nameU="visVersion" v:val="VT0(14):26"/>
			</v:userDefs>
			<path d="M0 467.03 L11.34 455.69 L11.34 463.18 L42.52 463.18 L42.52 470.89 L11.34 470.89 L11.34 478.37 L0 467.03 Z"
					class="st5"/>
		</g>
		<g id="shape19-46" v:mID="19" v:groupContext="shape" transform="translate(359.657,769.996) scale(1,-1)">
			<title>45 degree single.19</title>
			<v:userDefs>
				<v:ud v:nameU="visVersion" v:val="VT0(14):26"/>
			</v:userDefs>
			<path d="M0 467.03 L11.34 455.69 L11.34 463.18 L42.52 463.18 L42.52 470.89 L11.34 470.89 L11.34 478.37 L0 467.03 Z"
					class="st5"/>
		</g>
		<g id="shape12-48" v:mID="12" v:groupContext="shape" transform="translate(189.579,-164.067) scale(-1,1)">
			<title>45 degree single.12</title>
			<v:userDefs>
				<v:ud v:nameU="visVersion" v:val="VT0(14):26"/>
			</v:userDefs>
			<path d="M0 467.03 L11.34 455.69 L11.34 463.18 L42.52 463.18 L42.52 470.89 L11.34 470.89 L11.34 478.37 L0 467.03 Z"
					class="st5"/>
		</g>
		<g id="shape20-50" v:mID="20" v:groupContext="shape" transform="translate(189.579,-277.453) scale(-1,1)">
			<title>45 degree single.20</title>
			<v:userDefs>
				<v:ud v:nameU="visVersion" v:val="VT0(14):26"/>
			</v:userDefs>
			<path d="M0 467.03 L11.34 455.69 L11.34 463.18 L42.52 463.18 L42.52 470.89 L11.34 470.89 L11.34 478.37 L0 467.03 Z"
					class="st5"/>
		</g>
		<g id="shape21-52" v:mID="21" v:groupContext="shape" transform="translate(189.579,-79.0276) scale(-1,1)">
			<title>45 degree single.21</title>
			<v:userDefs>
				<v:ud v:nameU="visVersion" v:val="VT0(14):26"/>
			</v:userDefs>
			<path d="M0 467.03 L11.34 455.69 L11.34 463.18 L42.52 463.18 L42.52 470.89 L11.34 470.89 L11.34 478.37 L0 467.03 Z"
					class="st5"/>
		</g>
		<g id="shape22-54" v:mID="22" v:groupContext="shape" transform="translate(741.65,161.232) rotate(90) scale(-1,1)">
			<title>45 degree single.22</title>
			<v:userDefs>
				<v:ud v:nameU="visVersion" v:val="VT0(14):26"/>
			</v:userDefs>
			<path d="M0 467.03 L11.34 455.69 L11.34 463.18 L42.52 463.18 L42.52 470.89 L11.34 470.89 L11.34 478.37 L0 467.03 Z"
					class="st5"/>
		</g>
	</g>
</svg>
